<svg width="362" height="326" viewBox="0 0 362 326" fill="none" xmlns="http://www.w3.org/2000/svg">
<g clip-path="url(#clip0_338_3)">
<path d="M140.815 325.75H221.185C277.625 325.75 305.844 325.75 326.115 312.452C334.889 306.694 342.424 299.296 348.289 290.681C361.833 270.778 361.833 243.071 361.833 187.658C361.833 132.247 361.833 104.54 348.289 84.6377C342.424 76.0217 334.889 68.6238 326.115 62.8668C313.088 54.3215 296.782 51.2672 271.814 50.1756C259.899 50.1756 249.643 41.3115 247.306 29.8408C243.8 12.6351 228.413 0.25 210.543 0.25H151.457C133.586 0.25 118.199 12.6351 114.694 29.8408C112.358 41.3115 102.1 50.1756 90.1855 50.1756C65.2184 51.2672 48.9112 54.3215 35.8856 62.8668C27.1099 68.6238 19.5752 76.0217 13.7115 84.6377C0.166689 104.54 0.166687 132.247 0.166687 187.658C0.166687 243.071 0.166689 270.778 13.7115 290.681C19.5752 299.296 27.1099 306.694 35.8856 312.452C56.157 325.75 84.3762 325.75 140.815 325.75Z" fill="#363853"/>
<path fill-rule="evenodd" clip-rule="evenodd" d="M180.668 143C155.998 143 136 162.635 136 186.856C136 211.076 155.998 230.712 180.668 230.712C205.337 230.712 225.336 211.076 225.336 186.856C225.336 162.635 205.337 143 180.668 143ZM180.668 160.542C165.866 160.542 153.867 172.324 153.867 186.856C153.867 201.388 165.866 213.169 180.668 213.169C195.47 213.169 207.469 201.388 207.469 186.856C207.469 172.324 195.47 160.542 180.668 160.542Z" fill="#5462EB"/>
</g>
<g clip-path="url(#clip1_338_3)">
<path d="M136.907 252.318L124.233 277.666C108.09 270.939 91.3729 264.212 73.601 252.635C67.4035 248.597 63.6457 241.735 63.4967 234.34C62.7236 196.376 71.6302 158.208 94.1818 117.854C97.1332 112.573 102.051 108.701 107.754 106.676C121.359 101.847 130.595 98.1149 146.412 95.4788L155.918 112.905C155.918 112.905 165.423 109.737 181.266 109.737C197.108 109.737 206.613 112.905 206.613 112.905L216.119 95.4788C231.936 98.1149 241.172 101.847 254.777 106.676C260.48 108.701 265.398 112.573 268.349 117.854C290.901 158.208 299.808 196.376 299.036 234.34C298.886 241.735 295.128 248.597 288.93 252.635C271.158 264.212 254.443 270.939 238.298 277.666L225.624 252.318M117.896 239.644C117.896 239.644 149.581 255.487 181.266 255.487C212.95 255.487 244.635 239.644 244.635 239.644" stroke="#8C89AC" stroke-width="19.7819" stroke-linecap="round" stroke-linejoin="round"/>
<path d="M275.069 95C266.747 95 260 101.624 260 109.795C260 117.967 266.747 124.59 275.069 124.59H295.161C303.485 124.59 310.232 117.967 310.232 109.795C310.232 101.624 303.485 95 295.161 95H275.069Z" fill="#5462EB"/>
</g>
<defs>
<clipPath id="clip0_338_3">
<rect width="362" height="326" fill="white"/>
</clipPath>
<clipPath id="clip1_338_3">
<rect width="256.532" height="203.393" fill="white" transform="translate(53 85)"/>
</clipPath>
</defs>
</svg>
